<svg aria-hidden="true" style="position: absolute; width: 0; height: 0; overflow: hidden;" version="1.1" xmlns="http://www.w3.org/2000/svg" xmlns:xlink="http://www.w3.org/1999/xlink">
    <defs>
        <symbol id="icon-upper-corner" viewBox="0 0 32 32">
            <path d="M0.781 22.114l3.771 3.771 11.448-11.448 11.448 11.448 3.771-3.771-15.219-15.219-15.219 15.219z"></path>
        </symbol>
        <symbol id="icon-lower-corner" viewBox="0 0 32 32">
            <path d="M27.448 6.115l-11.448 11.448-11.448-11.448-3.771 3.771 15.219 15.219 15.219-15.219-3.771-3.771z"></path>
        </symbol>
        <symbol id="icon-left-corner" viewBox="0 0 32 32">
            <path d="M22.114 0.781l-15.219 15.219 15.219 15.219 3.771-3.771-11.448-11.448 11.448-11.448-3.771-3.771z"></path>
        </symbol>
        <symbol id="icon-right-corner" viewBox="0 0 32 32">
            <path d="M9.885 31.866l15.219-15.219-15.219-15.219-3.771 3.771 11.448 11.448-11.448 11.448 3.771 3.771z"></path>
        </symbol>
        <symbol id="icon-upper-arrow" viewBox="0 0 32 32">
            <path d="M13.714 10.089v21.911h4.571v-21.911l9.813 9.813 3.232-3.232-15.33-15.33-15.33 15.33 3.232 3.232 9.813-9.813z"></path>
        </symbol>
        <symbol id="icon-lower-arrow" viewBox="0 0 32 32">
            <path d="M31.33 15.33l-3.232-3.232-9.813 9.813v-21.911h-4.571v21.911l-9.813-9.813-3.232 3.232 15.33 15.33 15.33-15.33z"></path>
        </symbol>
        <symbol id="icon-left-arrow" viewBox="0 0 32 32">
            <path d="M19.902 28.098l-9.813-9.813h21.911v-4.571h-21.911l9.813-9.813-3.232-3.232-15.33 15.33 15.33 15.33 3.232-3.232z"></path>
        </symbol>
        <symbol id="icon-right-arrow" viewBox="0 0 32 32">
            <path d="M12.098 28.098l3.232 3.232 15.33-15.33-15.33-15.33-3.232 3.232 9.813 9.813h-21.911v4.571h21.911l-9.813 9.813z"></path>
        </symbol>
        <symbol id="icon-minus" viewBox="0 0 32 32">
            <path d="M0 13.714h32v4.571h-32v-4.571z"></path>
        </symbol>
        <symbol id="icon-plus" viewBox="0 0 32 32">
            <path d="M32 13.714h-13.714v-13.714h-4.571v13.714h-13.714v4.571h13.714v13.714h4.571v-13.714h13.714v-4.571z"></path>
        </symbol>
        <symbol id="icon-check" viewBox="0 0 32 32">
            <path d="M10.667 21.517l-7.025-7.025-3.017 3.017 10.042 10.042 20.708-20.708-3.017-3.017-17.692 17.692z"></path>
        </symbol>
        <symbol id="icon-cross" viewBox="0 0 32 32">
            <path d="M27.179 0.918l-11.315 11.312-11.312-11.312-3.771 3.771 11.312 11.312-11.312 11.312 3.771 3.771 11.312-11.312 11.315 11.312 3.771-3.771-11.312-11.312 11.312-11.312-3.771-3.771z"></path>
        </symbol>
        <symbol id="icon-star" viewBox="0 0 32 32">
            <path d="M7.226 19.717l-2.384 10.323c-0.074 0.313-0.052 0.64 0.064 0.94s0.318 0.558 0.582 0.74c0.264 0.183 0.577 0.281 0.899 0.283s0.635-0.093 0.902-0.273l8.712-5.808 8.712 5.808c0.273 0.181 0.594 0.274 0.921 0.267s0.644-0.114 0.908-0.307c0.264-0.193 0.463-0.462 0.57-0.771s0.116-0.644 0.028-0.959l-2.926-10.24 7.258-6.531c0.232-0.209 0.399-0.482 0.477-0.785s0.068-0.622-0.033-0.918-0.285-0.556-0.532-0.749c-0.247-0.192-0.544-0.308-0.856-0.333l-9.122-0.726-3.947-8.738c-0.126-0.281-0.33-0.52-0.589-0.688s-0.56-0.257-0.868-0.257c-0.308 0-0.61 0.089-0.868 0.257s-0.463 0.407-0.589 0.688l-3.947 8.738-9.122 0.725c-0.306 0.024-0.599 0.136-0.844 0.323s-0.43 0.439-0.534 0.728c-0.104 0.289-0.123 0.602-0.055 0.902s0.223 0.573 0.443 0.788l6.742 6.571zM11.79 12.795c0.286-0.023 0.56-0.121 0.794-0.286s0.42-0.39 0.537-0.651l2.878-6.37 2.878 6.37c0.117 0.261 0.303 0.486 0.537 0.651s0.508 0.264 0.794 0.286l6.355 0.504-5.234 4.71c-0.454 0.41-0.635 1.040-0.469 1.629l2.005 7.016-5.978-3.986c-0.262-0.176-0.571-0.27-0.887-0.27s-0.625 0.094-0.887 0.27l-6.246 4.165 1.68-7.274c0.062-0.268 0.053-0.546-0.024-0.81s-0.221-0.503-0.418-0.694l-4.861-4.739 6.544-0.522z"></path>
        </symbol>
        <symbol id="icon-menu-alt-right" viewBox="0 0 32 32">
            <path d="M5.333 8h21.333v2.667h-21.333v-2.667zM10.667 14.667h16v2.667h-16v-2.667zM17.333 21.333h9.333v2.667h-9.333v-2.667z"></path>
        </symbol>
        <symbol id="icon-message" viewBox="0 0 32 32">
            <path d="M28.8 3.2h-25.6c-1.765 0-3.2 1.435-3.2 3.2v19.2c0 1.765 1.435 3.2 3.2 3.2h25.6c1.765 0 3.2-1.435 3.2-3.2v-19.2c0-1.765-1.435-3.2-3.2-3.2zM28.8 6.4v0.818l-12.8 9.957-12.8-9.955v-0.819h25.6zM3.2 25.6v-14.33l11.818 9.192c0.28 0.22 0.626 0.34 0.982 0.34s0.702-0.12 0.982-0.34l11.818-9.192 0.003 14.33h-25.603z"></path>
        </symbol>
        <symbol id="icon-phone" viewBox="0 0 32 32">
            <path d="M24.77 17.336c-0.156-0.157-0.342-0.281-0.546-0.365s-0.423-0.128-0.645-0.128c-0.221 0-0.44 0.044-0.645 0.128s-0.39 0.209-0.546 0.365l-2.685 2.685c-1.245-0.371-3.567-1.213-5.039-2.685s-2.314-3.795-2.685-5.039l2.685-2.685c0.157-0.156 0.281-0.342 0.365-0.546s0.128-0.423 0.128-0.645c0-0.221-0.044-0.44-0.128-0.645s-0.209-0.39-0.365-0.546l-6.737-6.737c-0.156-0.157-0.342-0.281-0.546-0.365s-0.423-0.128-0.645-0.128c-0.221 0-0.44 0.044-0.645 0.128s-0.39 0.209-0.546 0.365l-4.568 4.568c-0.64 0.64-1 1.519-0.987 2.417 0.039 2.398 0.674 10.729 7.239 17.294s14.895 7.198 17.295 7.239h0.047c0.889 0 1.73-0.35 2.366-0.987l4.568-4.568c0.157-0.156 0.281-0.342 0.365-0.546s0.128-0.423 0.128-0.645c0-0.221-0.044-0.44-0.128-0.645s-0.209-0.39-0.365-0.546l-6.737-6.739zM24.556 28.64c-2.102-0.035-9.293-0.6-14.944-6.252-5.669-5.669-6.218-12.886-6.252-14.946l3.377-3.377 4.355 4.355-2.178 2.178c-0.198 0.198-0.344 0.442-0.423 0.71s-0.092 0.552-0.035 0.826c0.040 0.194 1.029 4.787 3.825 7.582s7.389 3.784 7.582 3.825c0.274 0.059 0.558 0.048 0.826-0.032s0.512-0.226 0.71-0.425l2.179-2.178 4.355 4.355-3.379 3.377z"></path>
        </symbol>
        <symbol id="icon-location" viewBox="0 0 32 32">
            <path d="M16 19.2c3.53 0 6.4-2.87 6.4-6.4s-2.87-6.4-6.4-6.4c-3.53 0-6.4 2.87-6.4 6.4s2.87 6.4 6.4 6.4zM16 9.6c1.765 0 3.2 1.435 3.2 3.2s-1.435 3.2-3.2 3.2c-1.765 0-3.2-1.435-3.2-3.2s1.435-3.2 3.2-3.2z"></path>
            <path d="M15.072 31.702c0.271 0.193 0.595 0.297 0.928 0.297s0.657-0.104 0.928-0.297c0.486-0.344 11.918-8.598 11.872-18.902 0-7.058-5.742-12.8-12.8-12.8s-12.8 5.742-12.8 12.792c-0.046 10.312 11.386 18.566 11.872 18.91zM16 3.2c5.294 0 9.6 4.306 9.6 9.608 0.034 7.101-7.021 13.477-9.6 15.568-2.578-2.093-9.634-8.47-9.6-15.576 0-5.294 4.306-9.6 9.6-9.6z"></path>
        </symbol>
        <symbol id="icon-favicon" viewBox="0 0 32 32">
            <path d="M28.247 1.479c0.494-0.026 1.028-0.053 1.474 0.044 0.251 0.055 0.417 0.145 0.561 0.359 0.093 0.491 0.174 0.977 0.193 1.477 0.041 1.059 0.030 2.127 0.020 3.192-0.005 0.483-0.008 0.966-0.008 1.447l-0.001 9.176c0 0.301 0.010 0.808 0.021 1.426 0.038 2.162 0.101 5.679-0.099 6.453-0.143 0.555-0.436 0.81-0.93 1.094-0.442 0.055-0.903 0.065-1.359 0.075-0.239 0.005-0.478 0.010-0.712 0.021-2.202 0.109-4.528 0.328-6.551 1.237-0.542 0.244-1.085 0.53-1.561 0.882-0.244 0.18-0.516 0.431-0.807 0.699-0.725 0.667-1.562 1.439-2.352 1.481-0.91 0.049-1.773-0.709-2.57-1.408-0.379-0.332-0.743-0.652-1.089-0.865-0.84-0.516-1.791-0.913-2.733-1.213-1.555-0.495-3.202-0.748-4.832-0.842-0.246-0.014-0.499-0.014-0.754-0.013-0.473 0.002-0.953 0.002-1.399-0.094-0.389-0.084-0.639-0.276-0.932-0.528-0.214-0.495-0.28-1.106-0.307-1.639-0.047-0.954-0.035-1.918-0.023-2.879 0.006-0.427 0.011-0.853 0.011-1.277l0.006-8.116-0.007-6.141c-0-0.268-0.011-0.56-0.023-0.861-0.033-0.816-0.069-1.705 0.114-2.401 0.1-0.382 0.327-0.551 0.656-0.756 3.619-0.228 7.572 0.503 10.751 2.224 1.056 0.572 2.009 1.272 2.97 1.979 0.541-0.392 1.085-0.785 1.642-1.155 2.993-1.99 6.558-2.974 10.169-3.061 0.147-0.004 0.302-0.012 0.462-0.020zM27.831 4.236c-0.438 0.004-0.903-0.023-1.337 0.033-2.97 0.261-6.78 1.318-8.797 3.619-0.086 0.098-0.169 0.2-0.249 0.303l-0.004 18.073c0.33-0.233 0.656-0.474 0.991-0.7 2.775-1.613 6.247-1.89 9.409-2.111 0-6.401 0.088-12.816-0.014-19.216zM4.162 4.24c-0.068 2.674-0.053 5.357-0.038 8.037 0.006 1.099 0.011 2.198 0.011 3.296 0 0.806-0.011 1.617-0.021 2.43v0.007c-0.023 1.8-0.047 3.61 0.045 5.389 3.655 0.306 7.325 0.657 10.369 2.831-0.018-5.998 0.016-11.995 0.102-17.991-2.393-2.458-6.138-3.91-9.591-4.004-0.292-0.006-0.586-0.004-0.878 0.006z"></path>
            <path d="M28.247 1.479v0zM29.721 1.523v0zM30.282 1.882l0.218-0.041-0.008-0.045-0.025-0.038-0.185 0.124zM30.476 3.359v0zM30.495 6.551v0zM30.487 7.999v0zM30.486 17.175h-0.222v0l0.222-0zM30.507 18.601v0zM30.407 25.054v0zM29.477 26.148l0.027 0.22 0.044-0.005 0.039-0.022-0.111-0.193zM28.118 26.223v0zM27.406 26.244v0zM20.855 27.482v0zM19.294 28.364l0.132 0.179v-0l-0.132-0.178zM18.487 29.063v0zM16.135 30.544l0.012 0.222h0l-0.012-0.222zM13.565 29.136v0zM12.476 28.271v0zM9.743 27.058l0.067-0.212h-0l-0.067 0.212zM4.91 26.216l-0.013 0.222h0l0.013-0.222zM4.156 26.203v0zM2.757 26.109l-0.047 0.217h0l0.047-0.217zM1.825 25.581l-0.204 0.088 0.020 0.047 0.039 0.033 0.145-0.168zM1.518 23.942v0zM1.495 21.063v0zM1.507 19.785v0zM1.512 11.669l0.222 0v-0l-0.222 0zM1.505 5.528v0zM1.483 4.668v0zM1.596 2.267v0zM2.253 1.511l-0.014-0.222-0.056 0.004-0.047 0.029 0.117 0.189zM13.004 3.736v0zM15.974 5.715l-0.132 0.179 0.131 0.096 0.131-0.095-0.13-0.18zM17.616 4.56v0zM27.785 1.499l0.005 0.222h0l-0.006-0.222zM27.831 4.236l0.222-0.004-0.003-0.22-0.22 0.002 0.002 0.222zM26.494 4.268l0.020 0.221 0.009-0.001-0.029-0.22zM17.697 7.888l-0.167-0.146-0.001 0.001 0.168 0.146zM17.449 8.19l-0.176-0.136-0.046 0.060v0.076l0.222 0zM17.444 26.263l-0.222-0v0.429l0.35-0.248-0.128-0.181zM18.436 25.562l-0.112-0.192-0.012 0.008 0.124 0.184zM27.845 23.452l0.015 0.222 0.207-0.014v-0.207h-0.222zM4.162 4.24l-0.007-0.222-0.21 0.007-0.005 0.21 0.222 0.006zM4.123 12.277v0zM4.135 15.572v0zM4.113 18.003l-0.222-0.003v0.003h0.222zM4.113 18.010l0.222 0.003v-0.003h-0.222zM4.159 23.399l-0.222 0.012 0.010 0.194 0.193 0.016 0.019-0.221zM14.528 26.23l-0.129 0.181 0.353 0.252-0.001-0.433-0.222 0.001zM14.63 8.239l0.222 0.003 0.001-0.092-0.064-0.066-0.159 0.155zM5.039 4.234l0.006-0.222-0.001-0-0.005 0.222zM28.247 1.479l0.012 0.222c0.502-0.026 1.004-0.050 1.416 0.039l0.094-0.434c-0.481-0.105-1.047-0.074-1.533-0.049l0.012 0.222zM29.721 1.523l-0.047 0.217c0.111 0.024 0.189 0.053 0.251 0.092 0.060 0.037 0.116 0.090 0.173 0.174l0.369-0.247c-0.087-0.129-0.186-0.23-0.308-0.305-0.12-0.074-0.251-0.118-0.391-0.148l-0.047 0.217zM30.282 1.882l-0.218 0.041c0.092 0.49 0.171 0.962 0.19 1.445l0.444-0.017c-0.020-0.517-0.104-1.017-0.197-1.51l-0.218 0.041zM30.476 3.359l-0.222 0.008c0.040 1.053 0.030 2.115 0.020 3.181l0.444 0.004c0.010-1.064 0.021-2.137-0.020-3.202l-0.222 0.009zM30.495 6.551l-0.222-0.002c-0.005 0.483-0.009 0.967-0.009 1.45h0.444c0-0.48 0.004-0.962 0.008-1.445l-0.222-0.002zM30.487 7.999l-0.222-0-0.001 9.176h0.444l0.001-9.176-0.222-0zM30.486 17.175l-0.222 0c0 0.304 0.010 0.814 0.021 1.43l0.444-0.008c-0.011-0.619-0.021-1.124-0.021-1.423l-0.222 0zM30.507 18.601l-0.222 0.004c0.019 1.082 0.044 2.499 0.040 3.742-0.002 0.622-0.012 1.198-0.034 1.666-0.022 0.476-0.055 0.818-0.098 0.985l0.43 0.111c0.057-0.219 0.091-0.607 0.112-1.076 0.022-0.477 0.032-1.060 0.034-1.684 0.005-1.249-0.021-2.671-0.040-3.752l-0.222 0.004zM30.407 25.054l-0.215-0.056c-0.064 0.247-0.157 0.416-0.283 0.555-0.129 0.143-0.302 0.263-0.543 0.402l0.221 0.385c0.254-0.145 0.474-0.294 0.651-0.489 0.18-0.199 0.305-0.435 0.384-0.742l-0.215-0.056zM29.477 26.148l-0.027-0.221c-0.429 0.053-0.879 0.064-1.337 0.074l0.005 0.222 0.005 0.222c0.455-0.010 0.927-0.021 1.382-0.077l-0.027-0.22zM28.118 26.223l-0.005-0.222c-0.238 0.005-0.48 0.010-0.718 0.022l0.011 0.222 0.011 0.222c0.23-0.011 0.465-0.016 0.705-0.021l-0.005-0.222zM27.406 26.244l-0.011-0.222c-2.204 0.109-4.567 0.328-6.631 1.257l0.182 0.405c1.981-0.891 4.27-1.109 6.471-1.218l-0.011-0.222zM20.855 27.482l-0.091-0.203c-0.549 0.247-1.109 0.541-1.602 0.906l0.264 0.357c0.458-0.339 0.986-0.618 1.52-0.858l-0.091-0.202zM19.294 28.364l-0.132-0.179c-0.256 0.189-0.538 0.449-0.825 0.714l0.301 0.327c0.293-0.27 0.556-0.512 0.788-0.684l-0.132-0.179zM18.487 29.063l-0.151-0.163c-0.364 0.336-0.744 0.685-1.129 0.957-0.388 0.274-0.753 0.448-1.084 0.466l0.012 0.222 0.012 0.222c0.458-0.025 0.907-0.258 1.317-0.547 0.413-0.291 0.814-0.661 1.174-0.993l-0.15-0.163zM16.135 30.544l-0.012-0.222c-0.389 0.021-0.786-0.13-1.197-0.39s-0.813-0.611-1.214-0.963l-0.293 0.334c0.395 0.347 0.823 0.724 1.27 1.005s0.937 0.485 1.458 0.457l-0.012-0.222zM13.565 29.136l0.147-0.167c-0.375-0.329-0.754-0.663-1.12-0.887l-0.233 0.379c0.327 0.201 0.676 0.506 1.059 0.843l0.147-0.167zM12.476 28.271l0.116-0.189c-0.86-0.528-1.828-0.932-2.782-1.236l-0.067 0.212-0.067 0.212c0.931 0.296 1.863 0.686 2.684 1.191l0.116-0.189zM9.743 27.058l0.067-0.212c-1.576-0.502-3.242-0.757-4.887-0.852l-0.013 0.222-0.013 0.222c1.617 0.094 3.245 0.345 4.778 0.832l0.067-0.212zM4.91 26.216l0.013-0.222c-0.254-0.015-0.514-0.014-0.768-0.013l0.001 0.222 0.001 0.222c0.256-0.001 0.503-0.002 0.741 0.012l0.013-0.222zM4.156 26.203l-0.001-0.222c-0.478 0.002-0.933 0.001-1.352-0.089l-0.093 0.434c0.474 0.102 0.978 0.1 1.447 0.099l-0.001-0.222zM2.757 26.109l0.047-0.217c-0.331-0.072-0.546-0.232-0.834-0.48l-0.29 0.337c0.297 0.256 0.584 0.481 1.030 0.577l0.047-0.217zM1.825 25.581l0.204-0.088c-0.197-0.456-0.263-1.033-0.289-1.562l-0.444 0.022c0.027 0.537 0.094 1.183 0.325 1.716l0.204-0.088zM1.518 23.942l0.222-0.011c-0.047-0.945-0.035-1.903-0.022-2.865l-0.444-0.006c-0.012 0.96-0.025 1.931 0.023 2.893l0.222-0.011zM1.495 21.063l0.222 0.003c0.006-0.426 0.011-0.854 0.011-1.28l-0.444-0c-0 0.423-0.006 0.847-0.011 1.274l0.222 0.003zM1.507 19.785l0.222 0 0.006-8.116-0.444-0-0.006 8.116 0.222 0zM1.512 11.669l0.222-0-0.007-6.141-0.444 0.001 0.007 6.141 0.222-0zM1.505 5.528l0.222-0c-0-0.273-0.011-0.568-0.023-0.87l-0.444 0.018c0.012 0.301 0.022 0.589 0.023 0.852l0.222-0zM1.483 4.668l0.222-0.009c-0.033-0.826-0.066-1.678 0.107-2.335l-0.43-0.113c-0.193 0.735-0.153 1.66-0.121 2.466l0.222-0.009zM1.596 2.267l0.215 0.056c0.077-0.295 0.238-0.425 0.559-0.623l-0.234-0.377c-0.338 0.21-0.631 0.418-0.754 0.888l0.215 0.056zM2.253 1.511l0.014 0.222c3.583-0.226 7.493 0.499 10.632 2.198l0.211-0.391c-3.221-1.743-7.216-2.481-10.871-2.251l0.014 0.222zM13.004 3.736l-0.106 0.195c1.040 0.563 1.981 1.254 2.944 1.962l0.263-0.358c-0.96-0.706-1.924-1.415-2.996-1.995l-0.106 0.195zM15.974 5.715l0.13 0.18c0.541-0.392 1.082-0.782 1.635-1.15l-0.246-0.37c-0.561 0.373-1.109 0.768-1.65 1.16l0.13 0.18zM17.616 4.56l0.123 0.185c2.954-1.964 6.477-2.937 10.051-3.024l-0.011-0.444c-3.646 0.088-7.254 1.082-10.287 3.098l0.123 0.185zM27.785 1.499l0.006 0.222c0.151-0.004 0.309-0.012 0.468-0.020l-0.023-0.444c-0.16 0.008-0.312 0.016-0.456 0.020l0.005 0.222zM27.831 4.236l-0.002-0.222c-0.418 0.003-0.912-0.024-1.363 0.035l0.028 0.22 0.029 0.22c0.416-0.054 0.851-0.027 1.31-0.031l-0.002-0.222zM26.494 4.268l-0.019-0.221c-1.501 0.132-3.216 0.465-4.814 1.058-1.596 0.592-3.089 1.448-4.131 2.637l0.334 0.293c0.976-1.113 2.395-1.936 3.951-2.513 1.554-0.576 3.229-0.902 4.698-1.032l-0.020-0.221zM17.697 7.888l-0.168-0.146c-0.088 0.101-0.174 0.206-0.257 0.312l0.352 0.272c0.076-0.099 0.157-0.197 0.24-0.293l-0.168-0.146zM17.449 8.19l-0.222-0-0.004 18.072 0.444 0 0.004-18.072-0.222-0zM17.444 26.263l0.128 0.181c0.335-0.237 0.655-0.473 0.988-0.698l-0.249-0.368c-0.337 0.228-0.671 0.473-0.995 0.703l0.128 0.181zM18.436 25.562l0.112 0.192c2.723-1.582 6.141-1.86 9.313-2.081l-0.015-0.222-0.016-0.222c-3.153 0.221-6.678 0.497-9.505 2.14l0.112 0.192zM27.845 23.452h0.222c0-6.397 0.088-12.817-0.014-19.219l-0.444 0.007c0.102 6.398 0.014 12.807 0.014 19.212h0.222zM4.162 4.24l-0.222-0.006c-0.068 2.678-0.053 5.365-0.038 8.044l0.444-0.002c-0.014-2.68-0.030-5.36 0.038-8.030l-0.222-0.006zM4.123 12.277l-0.222 0.001c0.006 1.099 0.011 2.198 0.011 3.294l0.444-0c-0-1.098-0.005-2.198-0.011-3.297l-0.222 0.001zM4.135 15.572h-0.222c0 0.804-0.011 1.614-0.021 2.428l0.444 0.006c0.011-0.813 0.021-1.626 0.021-2.433l-0.222 0zM4.113 18.003h-0.222v0.007h0.444v-0.007h-0.222zM4.113 18.010l-0.222-0.003c-0.023 1.799-0.047 3.616 0.046 5.404l0.444-0.023c-0.092-1.771-0.069-3.574-0.045-5.375l-0.222-0.003zM4.159 23.399l-0.019 0.221c3.663 0.307 7.272 0.658 10.259 2.79l0.258-0.362c-3.101-2.214-6.834-2.566-10.48-2.872l-0.019 0.221zM14.528 26.23l0.222-0.001c-0.018-5.996 0.016-11.992 0.102-17.988l-0.444-0.006c-0.086 5.998-0.12 11.997-0.102 17.995l0.222-0.001zM14.63 8.239l0.159-0.155c-2.439-2.505-6.241-3.976-9.744-4.071l-0.006 0.222-0.006 0.222c3.403 0.093 7.091 1.526 9.438 3.937l0.159-0.155zM5.039 4.234l0.005-0.222c-0.297-0.006-0.594-0.004-0.889 0.006l0.007 0.222 0.007 0.222c0.289-0.009 0.578-0.012 0.866-0.006l0.005-0.222z"></path>
        </symbol>
    </defs>
</svg>